<svg width="1280" height="832" viewBox="0 0 1280 832" fill="none" xmlns="http://www.w3.org/2000/svg">
<rect width="1280" height="832" fill="white"/>
<rect width="289" height="832" fill="#D9D9D9"/>
<ellipse cx="144.5" cy="149.5" rx="118.5" ry="116.5" fill="white"/>
<path d="M144.084 163.117C167.938 163.117 187.194 144.108 187.194 120.559C187.194 97.0095 167.938 78 144.084 78C120.23 78 100.975 97.0095 100.975 120.559C100.975 144.108 120.23 163.117 144.084 163.117ZM144.084 90.7676C160.753 90.7676 174.261 104.103 174.261 120.559C174.261 137.015 160.753 150.35 144.084 150.35C127.415 150.35 113.908 137.015 113.908 120.559C113.908 104.103 127.415 90.7676 144.084 90.7676Z" fill="black"/>
<path d="M228.866 209.648C205.3 190.071 175.411 179.289 144.084 179.289C112.758 179.289 82.869 190.071 59.3025 209.648C56.716 211.918 56.1412 215.89 58.4403 218.727C60.7395 221.281 64.7631 221.848 67.637 219.578C88.9043 201.704 115.92 192.057 144.084 192.057C172.249 192.057 199.264 201.704 220.244 219.294C221.394 220.429 222.831 220.713 224.555 220.713C226.28 220.713 228.291 219.862 229.441 218.443C231.74 215.89 231.453 211.918 228.866 209.648Z" fill="black"/>
<rect x="23" y="347" width="243" height="82" rx="41" fill="white"/>
<rect x="23" y="659" width="243" height="82" rx="41" fill="white"/>
<rect x="23" y="555" width="243" height="82" rx="41" fill="white"/>
<rect x="23" y="451" width="243" height="82" rx="41" fill="white"/>
</svg>
