<svg width="1280" height="832" viewBox="0 0 1280 832" fill="none" xmlns="http://www.w3.org/2000/svg">
<rect width="1280" height="832" fill="white"/>
<rect width="1280" height="119" fill="#D9D9D9"/>
<rect x="29" y="9" width="107" height="102" rx="25" fill="white"/>
<rect x="165" y="34" width="196" height="51" rx="25.5" fill="white"/>
<rect x="378" y="34" width="196" height="51" rx="25.5" fill="white"/>
<rect x="591" y="34" width="196" height="51" rx="25.5" fill="white"/>
<path d="M49.6635 71V49.1818H52.3056V68.6562H62.4476V71H49.6635ZM72.8453 71.3409C71.3681 71.3409 70.0719 70.9893 68.9569 70.2862C67.8489 69.5831 66.9824 68.5994 66.3574 67.3352C65.7395 66.071 65.4306 64.5937 65.4306 62.9034C65.4306 61.1989 65.7395 59.7109 66.3574 58.4396C66.9824 57.1683 67.8489 56.1811 68.9569 55.478C70.0719 54.7749 71.3681 54.4233 72.8453 54.4233C74.3226 54.4233 75.6152 54.7749 76.7232 55.478C77.8382 56.1811 78.7047 57.1683 79.3226 58.4396C79.9476 59.7109 80.2601 61.1989 80.2601 62.9034C80.2601 64.5937 79.9476 66.071 79.3226 67.3352C78.7047 68.5994 77.8382 69.5831 76.7232 70.2862C75.6152 70.9893 74.3226 71.3409 72.8453 71.3409ZM72.8453 69.0824C73.9675 69.0824 74.8908 68.7947 75.6152 68.2195C76.3397 67.6442 76.8759 66.8878 77.2239 65.9503C77.5719 65.0128 77.7459 63.9972 77.7459 62.9034C77.7459 61.8097 77.5719 60.7905 77.2239 59.8459C76.8759 58.9013 76.3397 58.1378 75.6152 57.5554C74.8908 56.973 73.9675 56.6818 72.8453 56.6818C71.7232 56.6818 70.7999 56.973 70.0755 57.5554C69.351 58.1378 68.8148 58.9013 68.4668 59.8459C68.1188 60.7905 67.9448 61.8097 67.9448 62.9034C67.9448 63.9972 68.1188 65.0128 68.4668 65.9503C68.8148 66.8878 69.351 67.6442 70.0755 68.2195C70.7999 68.7947 71.7232 69.0824 72.8453 69.0824ZM90.7031 77.4773C89.4886 77.4773 88.4446 77.321 87.571 77.0085C86.6974 76.7031 85.9695 76.2983 85.3871 75.794C84.8118 75.2969 84.3537 74.7642 84.0128 74.196L86.0156 72.7898C86.2429 73.0881 86.5305 73.429 86.8786 73.8125C87.2266 74.2031 87.7024 74.5405 88.3061 74.8246C88.9169 75.1158 89.7159 75.2614 90.7031 75.2614C92.0241 75.2614 93.1143 74.9418 93.9737 74.3026C94.8331 73.6634 95.2628 72.6619 95.2628 71.2983V67.9744H95.0497C94.8651 68.2727 94.6023 68.642 94.2614 69.0824C93.9276 69.5156 93.4446 69.9027 92.8125 70.2436C92.1875 70.5774 91.3423 70.7443 90.277 70.7443C88.956 70.7443 87.7699 70.4318 86.7188 69.8068C85.6747 69.1818 84.8473 68.2727 84.2365 67.0795C83.6328 65.8864 83.331 64.4375 83.331 62.733C83.331 61.0568 83.6257 59.5973 84.2152 58.3544C84.8047 57.1044 85.625 56.1385 86.6761 55.4567C87.7273 54.7678 88.9418 54.4233 90.3196 54.4233C91.3849 54.4233 92.2301 54.6009 92.8551 54.956C93.4872 55.304 93.9702 55.7017 94.304 56.1491C94.6449 56.5895 94.9077 56.9517 95.0923 57.2358H95.348V54.6364H97.777V71.4688C97.777 72.875 97.4574 74.0185 96.8182 74.8991C96.1861 75.7869 95.3338 76.4368 94.2614 76.8487C93.196 77.2678 92.0099 77.4773 90.7031 77.4773ZM90.6179 68.4858C91.6264 68.4858 92.4787 68.255 93.1747 67.7933C93.8707 67.3317 94.3999 66.6676 94.7621 65.8011C95.1243 64.9347 95.3054 63.8977 95.3054 62.6903C95.3054 61.5114 95.1278 60.4709 94.7727 59.5689C94.4176 58.6669 93.892 57.9602 93.196 57.4489C92.5 56.9375 91.6406 56.6818 90.6179 56.6818C89.5526 56.6818 88.6648 56.9517 87.9545 57.4915C87.2514 58.0312 86.7223 58.7557 86.3672 59.6648C86.0192 60.5739 85.8452 61.5824 85.8452 62.6903C85.8452 63.8267 86.0227 64.8317 86.3778 65.7053C86.7401 66.5717 87.2727 67.2536 87.9759 67.7507C88.6861 68.2408 89.5668 68.4858 90.6179 68.4858ZM109.027 71.3409C107.55 71.3409 106.254 70.9893 105.138 70.2862C104.031 69.5831 103.164 68.5994 102.539 67.3352C101.921 66.071 101.612 64.5937 101.612 62.9034C101.612 61.1989 101.921 59.7109 102.539 58.4396C103.164 57.1683 104.031 56.1811 105.138 55.478C106.254 54.7749 107.55 54.4233 109.027 54.4233C110.504 54.4233 111.797 54.7749 112.905 55.478C114.02 56.1811 114.886 57.1683 115.504 58.4396C116.129 59.7109 116.442 61.1989 116.442 62.9034C116.442 64.5937 116.129 66.071 115.504 67.3352C114.886 68.5994 114.02 69.5831 112.905 70.2862C111.797 70.9893 110.504 71.3409 109.027 71.3409ZM109.027 69.0824C110.149 69.0824 111.072 68.7947 111.797 68.2195C112.521 67.6442 113.058 66.8878 113.406 65.9503C113.754 65.0128 113.928 63.9972 113.928 62.9034C113.928 61.8097 113.754 60.7905 113.406 59.8459C113.058 58.9013 112.521 58.1378 111.797 57.5554C111.072 56.973 110.149 56.6818 109.027 56.6818C107.905 56.6818 106.982 56.973 106.257 57.5554C105.533 58.1378 104.996 58.9013 104.648 59.8459C104.3 60.7905 104.126 61.8097 104.126 62.9034C104.126 63.9972 104.3 65.0128 104.648 65.9503C104.996 66.8878 105.533 67.6442 106.257 68.2195C106.982 68.7947 107.905 69.0824 109.027 69.0824Z" fill="black"/>
</svg>
