<svg width="1515" height="982" viewBox="0 0 1515 982" fill="none" xmlns="http://www.w3.org/2000/svg">
<rect x="3" width="1512" height="982" fill="white"/>
<path d="M822.53 54V32.1818H829.902C831.614 32.1818 833.013 32.4908 834.099 33.1087C835.193 33.7195 836.003 34.5469 836.528 35.5909C837.054 36.6349 837.317 37.7997 837.317 39.0852C837.317 40.3707 837.054 41.5391 836.528 42.5902C836.01 43.6413 835.207 44.4794 834.121 45.1044C833.034 45.7223 831.642 46.0312 829.945 46.0312H824.66V43.6875H829.859C831.031 43.6875 831.972 43.4851 832.682 43.0803C833.393 42.6754 833.908 42.1286 834.227 41.4396C834.554 40.7436 834.717 39.9588 834.717 39.0852C834.717 38.2116 834.554 37.4304 834.227 36.7415C833.908 36.0526 833.389 35.5128 832.672 35.1222C831.954 34.7244 831.003 34.5256 829.817 34.5256H825.172V54H822.53ZM841.232 54V37.6364H843.661V40.108H843.831C844.13 39.2983 844.669 38.6413 845.451 38.1371C846.232 37.6328 847.112 37.3807 848.093 37.3807C848.277 37.3807 848.508 37.3842 848.785 37.3913C849.062 37.3984 849.272 37.4091 849.414 37.4233V39.9801C849.328 39.9588 849.133 39.9268 848.828 39.8842C848.529 39.8345 848.213 39.8097 847.88 39.8097C847.084 39.8097 846.374 39.9766 845.749 40.3104C845.131 40.6371 844.641 41.0916 844.279 41.674C843.924 42.2493 843.746 42.9062 843.746 43.6449V54H841.232ZM858.544 54.3409C857.066 54.3409 855.77 53.9893 854.655 53.2862C853.547 52.5831 852.681 51.5994 852.056 50.3352C851.438 49.071 851.129 47.5937 851.129 45.9034C851.129 44.1989 851.438 42.7109 852.056 41.4396C852.681 40.1683 853.547 39.1811 854.655 38.478C855.77 37.7749 857.066 37.4233 858.544 37.4233C860.021 37.4233 861.313 37.7749 862.421 38.478C863.536 39.1811 864.403 40.1683 865.021 41.4396C865.646 42.7109 865.958 44.1989 865.958 45.9034C865.958 47.5937 865.646 49.071 865.021 50.3352C864.403 51.5994 863.536 52.5831 862.421 53.2862C861.313 53.9893 860.021 54.3409 858.544 54.3409ZM858.544 52.0824C859.666 52.0824 860.589 51.7947 861.313 51.2195C862.038 50.6442 862.574 49.8878 862.922 48.9503C863.27 48.0128 863.444 46.9972 863.444 45.9034C863.444 44.8097 863.27 43.7905 862.922 42.8459C862.574 41.9013 862.038 41.1378 861.313 40.5554C860.589 39.973 859.666 39.6818 858.544 39.6818C857.421 39.6818 856.498 39.973 855.774 40.5554C855.049 41.1378 854.513 41.9013 854.165 42.8459C853.817 43.7905 853.643 44.8097 853.643 45.9034C853.643 46.9972 853.817 48.0128 854.165 48.9503C854.513 49.8878 855.049 50.6442 855.774 51.2195C856.498 51.7947 857.421 52.0824 858.544 52.0824ZM869.796 37.6364H872.31V55.1932C872.31 56.2017 872.136 57.0753 871.788 57.8139C871.448 58.5526 870.929 59.1243 870.233 59.5291C869.544 59.9339 868.674 60.1364 867.623 60.1364C867.538 60.1364 867.453 60.1364 867.367 60.1364C867.282 60.1364 867.197 60.1364 867.112 60.1364V57.7926C867.197 57.7926 867.275 57.7926 867.346 57.7926C867.417 57.7926 867.495 57.7926 867.58 57.7926C868.347 57.7926 868.908 57.5653 869.264 57.1108C869.619 56.6634 869.796 56.0241 869.796 55.1932V37.6364ZM871.032 34.9091C870.542 34.9091 870.119 34.7422 869.764 34.4084C869.416 34.0746 869.242 33.6733 869.242 33.2045C869.242 32.7358 869.416 32.3345 869.764 32.0007C870.119 31.6669 870.542 31.5 871.032 31.5C871.522 31.5 871.941 31.6669 872.289 32.0007C872.644 32.3345 872.822 32.7358 872.822 33.2045C872.822 33.6733 872.644 34.0746 872.289 34.4084C871.941 34.7422 871.522 34.9091 871.032 34.9091ZM883.776 54.3409C882.199 54.3409 880.839 53.9929 879.696 53.2969C878.56 52.5938 877.682 51.6136 877.065 50.3565C876.454 49.0923 876.148 47.6222 876.148 45.946C876.148 44.2699 876.454 42.7926 877.065 41.5142C877.682 40.2287 878.542 39.2273 879.643 38.5099C880.751 37.7855 882.043 37.4233 883.521 37.4233C884.373 37.4233 885.214 37.5653 886.045 37.8494C886.876 38.1335 887.633 38.5952 888.315 39.2344C888.996 39.8665 889.54 40.7045 889.945 41.7486C890.349 42.7926 890.552 44.0781 890.552 45.6051V46.6705H877.938V44.4972H887.995C887.995 43.5739 887.81 42.75 887.441 42.0256C887.079 41.3011 886.56 40.7294 885.886 40.3104C885.218 39.8913 884.43 39.6818 883.521 39.6818C882.519 39.6818 881.653 39.9304 880.921 40.4276C880.197 40.9176 879.639 41.5568 879.248 42.3452C878.858 43.1335 878.663 43.9787 878.663 44.8807V46.3295C878.663 47.5653 878.876 48.6129 879.302 49.4723C879.735 50.3246 880.335 50.9744 881.102 51.4219C881.869 51.8622 882.761 52.0824 883.776 52.0824C884.437 52.0824 885.033 51.9901 885.566 51.8054C886.106 51.6136 886.571 51.3295 886.962 50.9531C887.352 50.5696 887.654 50.0937 887.867 49.5256L890.296 50.2074C890.04 51.0312 889.611 51.7557 889.007 52.3807C888.403 52.9986 887.658 53.4815 886.77 53.8295C885.882 54.1705 884.884 54.3409 883.776 54.3409ZM901.024 54.3409C899.49 54.3409 898.169 53.9787 897.061 53.2543C895.953 52.5298 895.101 51.532 894.504 50.2607C893.908 48.9893 893.609 47.5369 893.609 45.9034C893.609 44.2415 893.915 42.7749 894.525 41.5036C895.143 40.2251 896.003 39.2273 897.104 38.5099C898.212 37.7855 899.504 37.4233 900.981 37.4233C902.132 37.4233 903.169 37.6364 904.092 38.0625C905.016 38.4886 905.772 39.0852 906.361 39.8523C906.951 40.6193 907.317 41.5142 907.459 42.5369H904.945C904.753 41.7912 904.327 41.1307 903.666 40.5554C903.013 39.973 902.132 39.6818 901.024 39.6818C900.044 39.6818 899.185 39.9375 898.446 40.4489C897.714 40.9531 897.143 41.6669 896.731 42.5902C896.326 43.5064 896.123 44.5824 896.123 45.8182C896.123 47.0824 896.322 48.1832 896.72 49.1207C897.125 50.0582 897.693 50.7862 898.425 51.3047C899.163 51.8232 900.03 52.0824 901.024 52.0824C901.677 52.0824 902.271 51.9688 902.803 51.7415C903.336 51.5142 903.787 51.1875 904.156 50.7614C904.525 50.3352 904.788 49.8239 904.945 49.2273H907.459C907.317 50.1932 906.965 51.0632 906.404 51.8374C905.85 52.6044 905.115 53.2152 904.199 53.6697C903.29 54.1172 902.231 54.3409 901.024 54.3409ZM918.251 37.6364V39.767H909.771V37.6364H918.251ZM912.242 33.7159H914.756V49.3125C914.756 50.0227 914.859 50.5554 915.065 50.9105C915.278 51.2585 915.548 51.4929 915.875 51.6136C916.209 51.7273 916.56 51.7841 916.93 51.7841C917.207 51.7841 917.434 51.7699 917.611 51.7415C917.789 51.706 917.931 51.6776 918.038 51.6562L918.549 53.9148C918.378 53.9787 918.141 54.0426 917.835 54.1065C917.53 54.1776 917.143 54.2131 916.674 54.2131C915.964 54.2131 915.268 54.0604 914.586 53.755C913.911 53.4496 913.35 52.9844 912.903 52.3594C912.462 51.7344 912.242 50.946 912.242 49.9943V33.7159ZM933.331 41.3011L931.072 41.9403C930.93 41.5639 930.72 41.1982 930.443 40.843C930.174 40.4808 929.804 40.1825 929.335 39.9482C928.867 39.7138 928.267 39.5966 927.535 39.5966C926.534 39.5966 925.699 39.8274 925.032 40.2891C924.371 40.7436 924.041 41.3224 924.041 42.0256C924.041 42.6506 924.268 43.1442 924.723 43.5064C925.177 43.8686 925.887 44.1705 926.853 44.4119L929.282 45.0085C930.745 45.3636 931.835 45.907 932.553 46.6385C933.27 47.3629 933.629 48.2969 933.629 49.4403C933.629 50.3778 933.359 51.2159 932.819 51.9545C932.286 52.6932 931.541 53.2756 930.582 53.7017C929.623 54.1278 928.508 54.3409 927.237 54.3409C925.568 54.3409 924.186 53.9787 923.093 53.2543C921.999 52.5298 921.306 51.4716 921.015 50.0795L923.402 49.483C923.629 50.3636 924.059 51.0241 924.691 51.4645C925.33 51.9048 926.164 52.125 927.194 52.125C928.366 52.125 929.296 51.8764 929.985 51.3793C930.681 50.875 931.029 50.2713 931.029 49.5682C931.029 49 930.831 48.5241 930.433 48.1406C930.035 47.75 929.424 47.4588 928.6 47.267L925.873 46.6278C924.375 46.2727 923.274 45.7223 922.571 44.9766C921.875 44.2237 921.527 43.2827 921.527 42.1534C921.527 41.2301 921.786 40.4134 922.304 39.7031C922.83 38.9929 923.544 38.4354 924.446 38.0305C925.355 37.6257 926.384 37.4233 927.535 37.4233C929.154 37.4233 930.426 37.7784 931.349 38.4886C932.279 39.1989 932.94 40.1364 933.331 41.3011Z" fill="black"/>
<path d="M987.329 54V32.1818H989.971V41.8977H1001.6V32.1818H1004.25V54H1001.6V44.2415H989.971V54H987.329ZM1015.84 54.3409C1014.37 54.3409 1013.07 53.9893 1011.95 53.2862C1010.85 52.5831 1009.98 51.5994 1009.35 50.3352C1008.74 49.071 1008.43 47.5937 1008.43 45.9034C1008.43 44.1989 1008.74 42.7109 1009.35 41.4396C1009.98 40.1683 1010.85 39.1811 1011.95 38.478C1013.07 37.7749 1014.37 37.4233 1015.84 37.4233C1017.32 37.4233 1018.61 37.7749 1019.72 38.478C1020.84 39.1811 1021.7 40.1683 1022.32 41.4396C1022.94 42.7109 1023.26 44.1989 1023.26 45.9034C1023.26 47.5937 1022.94 49.071 1022.32 50.3352C1021.7 51.5994 1020.84 52.5831 1019.72 53.2862C1018.61 53.9893 1017.32 54.3409 1015.84 54.3409ZM1015.84 52.0824C1016.96 52.0824 1017.89 51.7947 1018.61 51.2195C1019.34 50.6442 1019.87 49.8878 1020.22 48.9503C1020.57 48.0128 1020.74 46.9972 1020.74 45.9034C1020.74 44.8097 1020.57 43.7905 1020.22 42.8459C1019.87 41.9013 1019.34 41.1378 1018.61 40.5554C1017.89 39.973 1016.96 39.6818 1015.84 39.6818C1014.72 39.6818 1013.8 39.973 1013.07 40.5554C1012.35 41.1378 1011.81 41.9013 1011.46 42.8459C1011.12 43.7905 1010.94 44.8097 1010.94 45.9034C1010.94 46.9972 1011.12 48.0128 1011.46 48.9503C1011.81 49.8878 1012.35 50.6442 1013.07 51.2195C1013.8 51.7947 1014.72 52.0824 1015.84 52.0824ZM1027.44 54V32.1818H1029.95V40.2358H1030.16C1030.35 39.9517 1030.6 39.5895 1030.93 39.1491C1031.26 38.7017 1031.74 38.304 1032.36 37.956C1032.98 37.6009 1033.83 37.4233 1034.89 37.4233C1036.27 37.4233 1037.49 37.7678 1038.54 38.4567C1039.59 39.1456 1040.41 40.1222 1041 41.3864C1041.59 42.6506 1041.88 44.142 1041.88 45.8608C1041.88 47.5938 1041.59 49.0959 1041 50.3672C1040.41 51.6314 1039.59 52.6115 1038.55 53.3075C1037.5 53.9964 1036.3 54.3409 1034.94 54.3409C1033.88 54.3409 1033.04 54.1669 1032.41 53.8189C1031.78 53.4638 1031.29 53.0625 1030.95 52.6151C1030.61 52.1605 1030.35 51.7841 1030.16 51.4858H1029.86V54H1027.44ZM1029.91 45.8182C1029.91 47.054 1030.09 48.1442 1030.45 49.0888C1030.81 50.0263 1031.34 50.7614 1032.04 51.294C1032.73 51.8196 1033.59 52.0824 1034.6 52.0824C1035.65 52.0824 1036.52 51.8054 1037.23 51.2514C1037.94 50.6903 1038.47 49.9375 1038.82 48.9929C1039.19 48.0412 1039.37 46.983 1039.37 45.8182C1039.37 44.6676 1039.19 43.6307 1038.84 42.7074C1038.49 41.777 1037.96 41.0419 1037.25 40.5021C1036.54 39.9553 1035.66 39.6818 1034.6 39.6818C1033.57 39.6818 1032.71 39.9411 1032.02 40.4595C1031.32 40.9709 1030.8 41.6882 1030.44 42.6115C1030.09 43.5277 1029.91 44.5966 1029.91 45.8182ZM1046.07 54V32.1818H1048.58V40.2358H1048.8C1048.98 39.9517 1049.24 39.5895 1049.56 39.1491C1049.9 38.7017 1050.37 38.304 1050.99 37.956C1051.62 37.6009 1052.46 37.4233 1053.53 37.4233C1054.9 37.4233 1056.12 37.7678 1057.17 38.4567C1058.22 39.1456 1059.04 40.1222 1059.63 41.3864C1060.22 42.6506 1060.51 44.142 1060.51 45.8608C1060.51 47.5938 1060.22 49.0959 1059.63 50.3672C1059.04 51.6314 1058.22 52.6115 1057.18 53.3075C1056.14 53.9964 1054.93 54.3409 1053.57 54.3409C1052.52 54.3409 1051.68 54.1669 1051.04 53.8189C1050.41 53.4638 1049.93 53.0625 1049.58 52.6151C1049.24 52.1605 1048.98 51.7841 1048.8 51.4858H1048.5V54H1046.07ZM1048.54 45.8182C1048.54 47.054 1048.72 48.1442 1049.08 49.0888C1049.45 50.0263 1049.98 50.7614 1050.67 51.294C1051.37 51.8196 1052.22 52.0824 1053.23 52.0824C1054.28 52.0824 1055.16 51.8054 1055.86 51.2514C1056.57 50.6903 1057.1 49.9375 1057.46 48.9929C1057.82 48.0412 1058 46.983 1058 45.8182C1058 44.6676 1057.82 43.6307 1057.47 42.7074C1057.12 41.777 1056.59 41.0419 1055.88 40.5021C1055.18 39.9553 1054.29 39.6818 1053.23 39.6818C1052.21 39.6818 1051.35 39.9411 1050.65 40.4595C1049.95 40.9709 1049.43 41.6882 1049.07 42.6115C1048.72 43.5277 1048.54 44.5966 1048.54 45.8182ZM1064.36 54V37.6364H1066.87V54H1064.36ZM1065.64 34.9091C1065.15 34.9091 1064.73 34.7422 1064.37 34.4084C1064.02 34.0746 1063.85 33.6733 1063.85 33.2045C1063.85 32.7358 1064.02 32.3345 1064.37 32.0007C1064.73 31.6669 1065.15 31.5 1065.64 31.5C1066.13 31.5 1066.55 31.6669 1066.9 32.0007C1067.25 32.3345 1067.43 32.7358 1067.43 33.2045C1067.43 33.6733 1067.25 34.0746 1066.9 34.4084C1066.55 34.7422 1066.13 34.9091 1065.64 34.9091ZM1078.34 54.3409C1076.76 54.3409 1075.4 53.9929 1074.26 53.2969C1073.12 52.5938 1072.25 51.6136 1071.63 50.3565C1071.02 49.0923 1070.71 47.6222 1070.71 45.946C1070.71 44.2699 1071.02 42.7926 1071.63 41.5142C1072.25 40.2287 1073.11 39.2273 1074.21 38.5099C1075.32 37.7855 1076.61 37.4233 1078.08 37.4233C1078.94 37.4233 1079.78 37.5653 1080.61 37.8494C1081.44 38.1335 1082.2 38.5952 1082.88 39.2344C1083.56 39.8665 1084.1 40.7045 1084.51 41.7486C1084.91 42.7926 1085.12 44.0781 1085.12 45.6051V46.6705H1072.5V44.4972H1082.56C1082.56 43.5739 1082.37 42.75 1082.01 42.0256C1081.64 41.3011 1081.12 40.7294 1080.45 40.3104C1079.78 39.8913 1078.99 39.6818 1078.08 39.6818C1077.08 39.6818 1076.22 39.9304 1075.49 40.4276C1074.76 40.9176 1074.2 41.5568 1073.81 42.3452C1073.42 43.1335 1073.23 43.9787 1073.23 44.8807V46.3295C1073.23 47.5653 1073.44 48.6129 1073.87 49.4723C1074.3 50.3246 1074.9 50.9744 1075.67 51.4219C1076.43 51.8622 1077.33 52.0824 1078.34 52.0824C1079 52.0824 1079.6 51.9901 1080.13 51.8054C1080.67 51.6136 1081.14 51.3295 1081.53 50.9531C1081.92 50.5696 1082.22 50.0937 1082.43 49.5256L1084.86 50.2074C1084.6 51.0312 1084.18 51.7557 1083.57 52.3807C1082.97 52.9986 1082.22 53.4815 1081.33 53.8295C1080.45 54.1705 1079.45 54.3409 1078.34 54.3409ZM1100.53 41.3011L1098.27 41.9403C1098.13 41.5639 1097.92 41.1982 1097.64 40.843C1097.37 40.4808 1097.01 40.1825 1096.54 39.9482C1096.07 39.7138 1095.47 39.5966 1094.74 39.5966C1093.73 39.5966 1092.9 39.8274 1092.23 40.2891C1091.57 40.7436 1091.24 41.3224 1091.24 42.0256C1091.24 42.6506 1091.47 43.1442 1091.92 43.5064C1092.38 43.8686 1093.09 44.1705 1094.05 44.4119L1096.48 45.0085C1097.95 45.3636 1099.04 45.907 1099.75 46.6385C1100.47 47.3629 1100.83 48.2969 1100.83 49.4403C1100.83 50.3778 1100.56 51.2159 1100.02 51.9545C1099.49 52.6932 1098.74 53.2756 1097.78 53.7017C1096.82 54.1278 1095.71 54.3409 1094.44 54.3409C1092.77 54.3409 1091.39 53.9787 1090.29 53.2543C1089.2 52.5298 1088.51 51.4716 1088.22 50.0795L1090.6 49.483C1090.83 50.3636 1091.26 51.0241 1091.89 51.4645C1092.53 51.9048 1093.37 52.125 1094.4 52.125C1095.57 52.125 1096.5 51.8764 1097.19 51.3793C1097.88 50.875 1098.23 50.2713 1098.23 49.5682C1098.23 49 1098.03 48.5241 1097.63 48.1406C1097.24 47.75 1096.63 47.4588 1095.8 47.267L1093.07 46.6278C1091.58 46.2727 1090.47 45.7223 1089.77 44.9766C1089.08 44.2237 1088.73 43.2827 1088.73 42.1534C1088.73 41.2301 1088.99 40.4134 1089.51 39.7031C1090.03 38.9929 1090.74 38.4354 1091.65 38.0305C1092.56 37.6257 1093.59 37.4233 1094.74 37.4233C1096.36 37.4233 1097.63 37.7784 1098.55 38.4886C1099.48 39.1989 1100.14 40.1364 1100.53 41.3011Z" fill="black"/>
<path d="M1151.67 54H1148.9L1156.92 32.1818H1159.64L1167.65 54H1164.88L1158.36 35.6335H1158.19L1151.67 54ZM1152.7 45.4773H1163.86V47.821H1152.7V45.4773ZM1171.05 54V32.1818H1173.57V40.2358H1173.78C1173.97 39.9517 1174.22 39.5895 1174.55 39.1491C1174.88 38.7017 1175.36 38.304 1175.98 37.956C1176.6 37.6009 1177.45 37.4233 1178.51 37.4233C1179.89 37.4233 1181.1 37.7678 1182.15 38.4567C1183.21 39.1456 1184.03 40.1222 1184.61 41.3864C1185.2 42.6506 1185.5 44.142 1185.5 45.8608C1185.5 47.5938 1185.2 49.0959 1184.61 50.3672C1184.03 51.6314 1183.21 52.6115 1182.16 53.3075C1181.12 53.9964 1179.92 54.3409 1178.55 54.3409C1177.5 54.3409 1176.66 54.1669 1176.03 53.8189C1175.4 53.4638 1174.91 53.0625 1174.57 52.6151C1174.23 52.1605 1173.97 51.7841 1173.78 51.4858H1173.48V54H1171.05ZM1173.52 45.8182C1173.52 47.054 1173.71 48.1442 1174.07 49.0888C1174.43 50.0263 1174.96 50.7614 1175.66 51.294C1176.35 51.8196 1177.2 52.0824 1178.21 52.0824C1179.26 52.0824 1180.14 51.8054 1180.84 51.2514C1181.55 50.6903 1182.09 49.9375 1182.44 48.9929C1182.8 48.0412 1182.98 46.983 1182.98 45.8182C1182.98 44.6676 1182.81 43.6307 1182.45 42.7074C1182.1 41.777 1181.58 41.0419 1180.86 40.5021C1180.16 39.9553 1179.28 39.6818 1178.21 39.6818C1177.19 39.6818 1176.33 39.9411 1175.63 40.4595C1174.94 40.9709 1174.41 41.6882 1174.06 42.6115C1173.7 43.5277 1173.52 44.5966 1173.52 45.8182ZM1195.99 54.3409C1194.52 54.3409 1193.22 53.9893 1192.1 53.2862C1191 52.5831 1190.13 51.5994 1189.5 50.3352C1188.89 49.071 1188.58 47.5937 1188.58 45.9034C1188.58 44.1989 1188.89 42.7109 1189.5 41.4396C1190.13 40.1683 1191 39.1811 1192.1 38.478C1193.22 37.7749 1194.52 37.4233 1195.99 37.4233C1197.47 37.4233 1198.76 37.7749 1199.87 38.478C1200.99 39.1811 1201.85 40.1683 1202.47 41.4396C1203.1 42.7109 1203.41 44.1989 1203.41 45.9034C1203.41 47.5937 1203.1 49.071 1202.47 50.3352C1201.85 51.5994 1200.99 52.5831 1199.87 53.2862C1198.76 53.9893 1197.47 54.3409 1195.99 54.3409ZM1195.99 52.0824C1197.11 52.0824 1198.04 51.7947 1198.76 51.2195C1199.49 50.6442 1200.02 49.8878 1200.37 48.9503C1200.72 48.0128 1200.89 46.9972 1200.89 45.9034C1200.89 44.8097 1200.72 43.7905 1200.37 42.8459C1200.02 41.9013 1199.49 41.1378 1198.76 40.5554C1198.04 39.973 1197.11 39.6818 1195.99 39.6818C1194.87 39.6818 1193.95 39.973 1193.22 40.5554C1192.5 41.1378 1191.96 41.9013 1191.61 42.8459C1191.27 43.7905 1191.09 44.8097 1191.09 45.9034C1191.09 46.9972 1191.27 48.0128 1191.61 48.9503C1191.96 49.8878 1192.5 50.6442 1193.22 51.2195C1193.95 51.7947 1194.87 52.0824 1195.99 52.0824ZM1217.56 47.3097V37.6364H1220.07V54H1217.56V51.2301H1217.39C1217 52.0611 1216.41 52.7678 1215.6 53.3501C1214.79 53.9254 1213.77 54.2131 1212.53 54.2131C1211.51 54.2131 1210.6 53.9893 1209.8 53.5419C1209.01 53.0874 1208.38 52.4055 1207.93 51.4964C1207.47 50.5803 1207.25 49.4261 1207.25 48.0341V37.6364H1209.76V47.8636C1209.76 49.0568 1210.09 50.0085 1210.76 50.7188C1211.44 51.429 1212.3 51.7841 1213.34 51.7841C1213.96 51.7841 1214.6 51.6243 1215.25 51.3047C1215.9 50.9851 1216.45 50.495 1216.89 49.8345C1217.33 49.174 1217.56 48.3324 1217.56 47.3097ZM1231.79 37.6364V39.767H1223.31V37.6364H1231.79ZM1225.79 33.7159H1228.3V49.3125C1228.3 50.0227 1228.4 50.5554 1228.61 50.9105C1228.82 51.2585 1229.09 51.4929 1229.42 51.6136C1229.75 51.7273 1230.1 51.7841 1230.47 51.7841C1230.75 51.7841 1230.98 51.7699 1231.15 51.7415C1231.33 51.706 1231.47 51.6776 1231.58 51.6562L1232.09 53.9148C1231.92 53.9787 1231.68 54.0426 1231.38 54.1065C1231.07 54.1776 1230.69 54.2131 1230.22 54.2131C1229.51 54.2131 1228.81 54.0604 1228.13 53.755C1227.45 53.4496 1226.89 52.9844 1226.45 52.3594C1226.01 51.7344 1225.79 50.946 1225.79 49.9943V33.7159ZM1244.35 32.1818H1247.51L1254.92 50.2926H1255.18L1262.59 32.1818H1265.75V54H1263.27V37.4233H1263.06L1256.24 54H1253.86L1247.04 37.4233H1246.83V54H1244.35V32.1818ZM1277.56 54.3409C1275.99 54.3409 1274.63 53.9929 1273.48 53.2969C1272.35 52.5938 1271.47 51.6136 1270.85 50.3565C1270.24 49.0923 1269.94 47.6222 1269.94 45.946C1269.94 44.2699 1270.24 42.7926 1270.85 41.5142C1271.47 40.2287 1272.33 39.2273 1273.43 38.5099C1274.54 37.7855 1275.83 37.4233 1277.31 37.4233C1278.16 37.4233 1279 37.5653 1279.83 37.8494C1280.66 38.1335 1281.42 38.5952 1282.1 39.2344C1282.78 39.8665 1283.33 40.7045 1283.73 41.7486C1284.14 42.7926 1284.34 44.0781 1284.34 45.6051V46.6705H1271.73V44.4972H1281.78C1281.78 43.5739 1281.6 42.75 1281.23 42.0256C1280.87 41.3011 1280.35 40.7294 1279.67 40.3104C1279.01 39.8913 1278.22 39.6818 1277.31 39.6818C1276.31 39.6818 1275.44 39.9304 1274.71 40.4276C1273.98 40.9176 1273.43 41.5568 1273.04 42.3452C1272.64 43.1335 1272.45 43.9787 1272.45 44.8807V46.3295C1272.45 47.5653 1272.66 48.6129 1273.09 49.4723C1273.52 50.3246 1274.12 50.9744 1274.89 51.4219C1275.66 51.8622 1276.55 52.0824 1277.56 52.0824C1278.22 52.0824 1278.82 51.9901 1279.35 51.8054C1279.89 51.6136 1280.36 51.3295 1280.75 50.9531C1281.14 50.5696 1281.44 50.0937 1281.65 49.5256L1284.08 50.2074C1283.83 51.0312 1283.4 51.7557 1282.79 52.3807C1282.19 52.9986 1281.44 53.4815 1280.56 53.8295C1279.67 54.1705 1278.67 54.3409 1277.56 54.3409Z" fill="black"/>
<path d="M1349.04 39H1346.4C1346.24 38.2401 1345.97 37.5724 1345.58 36.9972C1345.19 36.4219 1344.72 35.9389 1344.17 35.5483C1343.62 35.1506 1343.02 34.8523 1342.35 34.6534C1341.68 34.4545 1340.98 34.3551 1340.26 34.3551C1338.94 34.3551 1337.74 34.6889 1336.67 35.3565C1335.6 36.0241 1334.76 37.0078 1334.12 38.3075C1333.5 39.6072 1333.19 41.2017 1333.19 43.0909C1333.19 44.9801 1333.5 46.5746 1334.12 47.8743C1334.76 49.174 1335.6 50.1577 1336.67 50.8253C1337.74 51.4929 1338.94 51.8267 1340.26 51.8267C1340.98 51.8267 1341.68 51.7273 1342.35 51.5284C1343.02 51.3295 1343.62 51.0348 1344.17 50.6442C1344.72 50.2464 1345.19 49.7599 1345.58 49.1847C1345.97 48.6023 1346.24 47.9347 1346.4 47.1818H1349.04C1348.84 48.2969 1348.48 49.2947 1347.95 50.1754C1347.43 51.0561 1346.77 51.8054 1345.99 52.4233C1345.21 53.0341 1344.33 53.4993 1343.36 53.8189C1342.39 54.1385 1341.36 54.2983 1340.26 54.2983C1338.4 54.2983 1336.74 53.8438 1335.29 52.9347C1333.85 52.0256 1332.71 50.733 1331.88 49.0568C1331.04 47.3807 1330.63 45.392 1330.63 43.0909C1330.63 40.7898 1331.04 38.8011 1331.88 37.125C1332.71 35.4489 1333.85 34.1562 1335.29 33.2472C1336.74 32.3381 1338.4 31.8835 1340.26 31.8835C1341.36 31.8835 1342.39 32.0433 1343.36 32.3629C1344.33 32.6825 1345.21 33.1513 1345.99 33.7692C1346.77 34.38 1347.43 35.1257 1347.95 36.0064C1348.48 36.88 1348.84 37.8778 1349.04 39ZM1359.61 54.3409C1358.14 54.3409 1356.84 53.9893 1355.73 53.2862C1354.62 52.5831 1353.75 51.5994 1353.13 50.3352C1352.51 49.071 1352.2 47.5937 1352.2 45.9034C1352.2 44.1989 1352.51 42.7109 1353.13 41.4396C1353.75 40.1683 1354.62 39.1811 1355.73 38.478C1356.84 37.7749 1358.14 37.4233 1359.61 37.4233C1361.09 37.4233 1362.38 37.7749 1363.49 38.478C1364.61 39.1811 1365.47 40.1683 1366.09 41.4396C1366.72 42.7109 1367.03 44.1989 1367.03 45.9034C1367.03 47.5937 1366.72 49.071 1366.09 50.3352C1365.47 51.5994 1364.61 52.5831 1363.49 53.2862C1362.38 53.9893 1361.09 54.3409 1359.61 54.3409ZM1359.61 52.0824C1360.74 52.0824 1361.66 51.7947 1362.38 51.2195C1363.11 50.6442 1363.64 49.8878 1363.99 48.9503C1364.34 48.0128 1364.51 46.9972 1364.51 45.9034C1364.51 44.8097 1364.34 43.7905 1363.99 42.8459C1363.64 41.9013 1363.11 41.1378 1362.38 40.5554C1361.66 39.973 1360.74 39.6818 1359.61 39.6818C1358.49 39.6818 1357.57 39.973 1356.84 40.5554C1356.12 41.1378 1355.58 41.9013 1355.24 42.8459C1354.89 43.7905 1354.71 44.8097 1354.71 45.9034C1354.71 46.9972 1354.89 48.0128 1355.24 48.9503C1355.58 49.8878 1356.12 50.6442 1356.84 51.2195C1357.57 51.7947 1358.49 52.0824 1359.61 52.0824ZM1373.38 44.1562V54H1370.87V37.6364H1373.3V40.1932H1373.51C1373.89 39.3622 1374.47 38.6946 1375.26 38.1903C1376.04 37.679 1377.05 37.4233 1378.28 37.4233C1379.39 37.4233 1380.36 37.6506 1381.19 38.1051C1382.02 38.5526 1382.67 39.2344 1383.13 40.1506C1383.59 41.0597 1383.82 42.2102 1383.82 43.6023V54H1381.31V43.7727C1381.31 42.4872 1380.97 41.4858 1380.31 40.7685C1379.64 40.044 1378.72 39.6818 1377.56 39.6818C1376.75 39.6818 1376.04 39.8558 1375.4 40.2038C1374.78 40.5518 1374.29 41.0597 1373.92 41.7273C1373.56 42.3949 1373.38 43.2045 1373.38 44.1562ZM1395.53 37.6364V39.767H1387.05V37.6364H1395.53ZM1389.52 33.7159H1392.04V49.3125C1392.04 50.0227 1392.14 50.5554 1392.35 50.9105C1392.56 51.2585 1392.83 51.4929 1393.16 51.6136C1393.49 51.7273 1393.84 51.7841 1394.21 51.7841C1394.49 51.7841 1394.72 51.7699 1394.89 51.7415C1395.07 51.706 1395.21 51.6776 1395.32 51.6562L1395.83 53.9148C1395.66 53.9787 1395.42 54.0426 1395.12 54.1065C1394.81 54.1776 1394.42 54.2131 1393.96 54.2131C1393.24 54.2131 1392.55 54.0604 1391.87 53.755C1391.19 53.4496 1390.63 52.9844 1390.18 52.3594C1389.74 51.7344 1389.52 50.946 1389.52 49.9943V33.7159ZM1404.13 54.3835C1403.09 54.3835 1402.15 54.1882 1401.31 53.7976C1400.46 53.3999 1399.79 52.8281 1399.29 52.0824C1398.8 51.3295 1398.55 50.4205 1398.55 49.3551C1398.55 48.4176 1398.73 47.6577 1399.1 47.0753C1399.47 46.4858 1399.96 46.0241 1400.58 45.6903C1401.2 45.3565 1401.88 45.108 1402.63 44.9446C1403.38 44.7741 1404.14 44.6392 1404.9 44.5398C1405.89 44.4119 1406.7 44.3161 1407.31 44.2521C1407.94 44.1811 1408.39 44.0639 1408.68 43.9006C1408.97 43.7372 1409.11 43.4531 1409.11 43.0483V42.9631C1409.11 41.9119 1408.83 41.0952 1408.25 40.5128C1407.68 39.9304 1406.82 39.6392 1405.66 39.6392C1404.46 39.6392 1403.52 39.902 1402.84 40.4276C1402.16 40.9531 1401.68 41.5142 1401.4 42.1108L1399.02 41.2585C1399.44 40.2642 1400.01 39.4901 1400.72 38.9361C1401.44 38.375 1402.22 37.9844 1403.06 37.7642C1403.92 37.5369 1404.75 37.4233 1405.58 37.4233C1406.1 37.4233 1406.71 37.4872 1407.39 37.6151C1408.08 37.7358 1408.74 37.9879 1409.38 38.3714C1410.03 38.755 1410.56 39.3338 1410.99 40.108C1411.42 40.8821 1411.63 41.919 1411.63 43.2188V54H1409.11V51.7841H1408.99C1408.82 52.1392 1408.53 52.5192 1408.13 52.924C1407.74 53.3288 1407.21 53.6733 1406.55 53.9574C1405.89 54.2415 1405.08 54.3835 1404.13 54.3835ZM1404.51 52.125C1405.51 52.125 1406.35 51.9297 1407.03 51.5391C1407.72 51.1484 1408.23 50.6442 1408.58 50.0263C1408.94 49.4084 1409.11 48.7585 1409.11 48.0767V45.7756C1409.01 45.9034 1408.77 46.0206 1408.41 46.1271C1408.06 46.2266 1407.64 46.3153 1407.18 46.3935C1406.71 46.4645 1406.26 46.5284 1405.82 46.5852C1405.39 46.6349 1405.04 46.6776 1404.77 46.7131C1404.11 46.7983 1403.5 46.9368 1402.94 47.1286C1402.37 47.3132 1401.92 47.5937 1401.57 47.9702C1401.23 48.3395 1401.06 48.8437 1401.06 49.483C1401.06 50.3565 1401.38 51.017 1402.03 51.4645C1402.68 51.9048 1403.51 52.125 1404.51 52.125ZM1422.87 54.3409C1421.33 54.3409 1420.01 53.9787 1418.9 53.2543C1417.79 52.5298 1416.94 51.532 1416.35 50.2607C1415.75 48.9893 1415.45 47.5369 1415.45 45.9034C1415.45 44.2415 1415.76 42.7749 1416.37 41.5036C1416.99 40.2251 1417.84 39.2273 1418.95 38.5099C1420.05 37.7855 1421.35 37.4233 1422.82 37.4233C1423.97 37.4233 1425.01 37.6364 1425.93 38.0625C1426.86 38.4886 1427.61 39.0852 1428.2 39.8523C1428.79 40.6193 1429.16 41.5142 1429.3 42.5369H1426.79C1426.59 41.7912 1426.17 41.1307 1425.51 40.5554C1424.85 39.973 1423.97 39.6818 1422.87 39.6818C1421.89 39.6818 1421.03 39.9375 1420.29 40.4489C1419.56 40.9531 1418.98 41.6669 1418.57 42.5902C1418.17 43.5064 1417.97 44.5824 1417.97 45.8182C1417.97 47.0824 1418.16 48.1832 1418.56 49.1207C1418.97 50.0582 1419.53 50.7862 1420.27 51.3047C1421.01 51.8232 1421.87 52.0824 1422.87 52.0824C1423.52 52.0824 1424.11 51.9688 1424.64 51.7415C1425.18 51.5142 1425.63 51.1875 1426 50.7614C1426.37 50.3352 1426.63 49.8239 1426.79 49.2273H1429.3C1429.16 50.1932 1428.81 51.0632 1428.25 51.8374C1427.69 52.6044 1426.96 53.2152 1426.04 53.6697C1425.13 54.1172 1424.07 54.3409 1422.87 54.3409ZM1440.09 37.6364V39.767H1431.61V37.6364H1440.09ZM1434.08 33.7159H1436.6V49.3125C1436.6 50.0227 1436.7 50.5554 1436.91 50.9105C1437.12 51.2585 1437.39 51.4929 1437.72 51.6136C1438.05 51.7273 1438.4 51.7841 1438.77 51.7841C1439.05 51.7841 1439.28 51.7699 1439.45 51.7415C1439.63 51.706 1439.77 51.6776 1439.88 51.6562L1440.39 53.9148C1440.22 53.9787 1439.98 54.0426 1439.68 54.1065C1439.37 54.1776 1438.98 54.2131 1438.52 54.2131C1437.81 54.2131 1437.11 54.0604 1436.43 53.755C1435.75 53.4496 1435.19 52.9844 1434.74 52.3594C1434.3 51.7344 1434.08 50.946 1434.08 49.9943V33.7159ZM1452.65 32.1818H1455.81L1463.22 50.2926H1463.48L1470.89 32.1818H1474.04V54H1471.57V37.4233H1471.36L1464.54 54H1462.16L1455.34 37.4233H1455.12V54H1452.65V32.1818ZM1485.86 54.3409C1484.29 54.3409 1482.93 53.9929 1481.78 53.2969C1480.65 52.5938 1479.77 51.6136 1479.15 50.3565C1478.54 49.0923 1478.23 47.6222 1478.23 45.946C1478.23 44.2699 1478.54 42.7926 1479.15 41.5142C1479.77 40.2287 1480.63 39.2273 1481.73 38.5099C1482.84 37.7855 1484.13 37.4233 1485.61 37.4233C1486.46 37.4233 1487.3 37.5653 1488.13 37.8494C1488.96 38.1335 1489.72 38.5952 1490.4 39.2344C1491.08 39.8665 1491.63 40.7045 1492.03 41.7486C1492.44 42.7926 1492.64 44.0781 1492.64 45.6051V46.6705H1480.02V44.4972H1490.08C1490.08 43.5739 1489.9 42.75 1489.53 42.0256C1489.16 41.3011 1488.65 40.7294 1487.97 40.3104C1487.3 39.8913 1486.52 39.6818 1485.61 39.6818C1484.61 39.6818 1483.74 39.9304 1483.01 40.4276C1482.28 40.9176 1481.73 41.5568 1481.33 42.3452C1480.94 43.1335 1480.75 43.9787 1480.75 44.8807V46.3295C1480.75 47.5653 1480.96 48.6129 1481.39 49.4723C1481.82 50.3246 1482.42 50.9744 1483.19 51.4219C1483.96 51.8622 1484.85 52.0824 1485.86 52.0824C1486.52 52.0824 1487.12 51.9901 1487.65 51.8054C1488.19 51.6136 1488.66 51.3295 1489.05 50.9531C1489.44 50.5696 1489.74 50.0937 1489.95 49.5256L1492.38 50.2074C1492.13 51.0312 1491.7 51.7557 1491.09 52.3807C1490.49 52.9986 1489.74 53.4815 1488.86 53.8295C1487.97 54.1705 1486.97 54.3409 1485.86 54.3409Z" fill="black"/>
<path d="M29.7358 53V31.1818H32.3778V50.6562H42.5199V53H29.7358ZM52.9176 53.3409C51.4403 53.3409 50.1442 52.9893 49.0291 52.2862C47.9212 51.5831 47.0547 50.5994 46.4297 49.3352C45.8118 48.071 45.5028 46.5937 45.5028 44.9034C45.5028 43.1989 45.8118 41.7109 46.4297 40.4396C47.0547 39.1683 47.9212 38.1811 49.0291 37.478C50.1442 36.7749 51.4403 36.4233 52.9176 36.4233C54.3949 36.4233 55.6875 36.7749 56.7955 37.478C57.9105 38.1811 58.777 39.1683 59.3949 40.4396C60.0199 41.7109 60.3324 43.1989 60.3324 44.9034C60.3324 46.5937 60.0199 48.071 59.3949 49.3352C58.777 50.5994 57.9105 51.5831 56.7955 52.2862C55.6875 52.9893 54.3949 53.3409 52.9176 53.3409ZM52.9176 51.0824C54.0398 51.0824 54.9631 50.7947 55.6875 50.2195C56.4119 49.6442 56.9482 48.8878 57.2962 47.9503C57.6442 47.0128 57.8182 45.9972 57.8182 44.9034C57.8182 43.8097 57.6442 42.7905 57.2962 41.8459C56.9482 40.9013 56.4119 40.1378 55.6875 39.5554C54.9631 38.973 54.0398 38.6818 52.9176 38.6818C51.7955 38.6818 50.8722 38.973 50.1477 39.5554C49.4233 40.1378 48.8871 40.9013 48.5391 41.8459C48.1911 42.7905 48.017 43.8097 48.017 44.9034C48.017 45.9972 48.1911 47.0128 48.5391 47.9503C48.8871 48.8878 49.4233 49.6442 50.1477 50.2195C50.8722 50.7947 51.7955 51.0824 52.9176 51.0824ZM64.1703 53V36.6364H66.5993V39.108H66.7697C67.068 38.2983 67.6078 37.6413 68.389 37.1371C69.1703 36.6328 70.051 36.3807 71.0311 36.3807C71.2157 36.3807 71.4466 36.3842 71.7235 36.3913C72.0005 36.3984 72.2101 36.4091 72.3521 36.4233V38.9801C72.2669 38.9588 72.0716 38.9268 71.7662 38.8842C71.4679 38.8345 71.1518 38.8097 70.818 38.8097C70.0226 38.8097 69.3123 38.9766 68.6873 39.3104C68.0694 39.6371 67.5794 40.0916 67.2172 40.674C66.862 41.2493 66.6845 41.9062 66.6845 42.6449V53H64.1703ZM81.6951 53.3409C80.1184 53.3409 78.7583 52.9929 77.6149 52.2969C76.4785 51.5938 75.6014 50.6136 74.9835 49.3565C74.3727 48.0923 74.0673 46.6222 74.0673 44.946C74.0673 43.2699 74.3727 41.7926 74.9835 40.5142C75.6014 39.2287 76.4608 38.2273 77.5616 37.5099C78.6696 36.7855 79.9622 36.4233 81.4395 36.4233C82.2917 36.4233 83.1333 36.5653 83.9643 36.8494C84.7953 37.1335 85.5517 37.5952 86.2335 38.2344C86.9153 38.8665 87.4586 39.7045 87.8635 40.7486C88.2683 41.7926 88.4707 43.0781 88.4707 44.6051V45.6705H75.8571V43.4972H85.9139C85.9139 42.5739 85.7292 41.75 85.3599 41.0256C84.9977 40.3011 84.4792 39.7294 83.8045 39.3104C83.1369 38.8913 82.3485 38.6818 81.4395 38.6818C80.438 38.6818 79.5716 38.9304 78.84 39.4276C78.1156 39.9176 77.5581 40.5568 77.1674 41.3452C76.7768 42.1335 76.5815 42.9787 76.5815 43.8807V45.3295C76.5815 46.5653 76.7946 47.6129 77.2207 48.4723C77.6539 49.3246 78.2541 49.9744 79.0211 50.4219C79.7882 50.8622 80.6795 51.0824 81.6951 51.0824C82.3556 51.0824 82.9522 50.9901 83.4849 50.8054C84.0247 50.6136 84.4899 50.3295 84.8805 49.9531C85.2711 49.5696 85.573 49.0937 85.786 48.5256L88.215 49.2074C87.9593 50.0312 87.5297 50.7557 86.926 51.3807C86.3223 51.9986 85.5765 52.4815 84.6887 52.8295C83.801 53.1705 82.8031 53.3409 81.6951 53.3409ZM92.2953 53V36.6364H94.7243V39.1932H94.9373C95.2782 38.3196 95.8287 37.6413 96.5886 37.1584C97.3485 36.6683 98.2612 36.4233 99.3265 36.4233C100.406 36.4233 101.305 36.6683 102.022 37.1584C102.746 37.6413 103.311 38.3196 103.716 39.1932H103.886C104.305 38.348 104.934 37.6768 105.772 37.1797C106.61 36.6754 107.615 36.4233 108.787 36.4233C110.25 36.4233 111.447 36.8814 112.377 37.7976C113.307 38.7067 113.773 40.1236 113.773 42.0483V53H111.258V42.0483C111.258 40.8409 110.928 39.978 110.268 39.4595C109.607 38.9411 108.829 38.6818 107.934 38.6818C106.784 38.6818 105.893 39.0298 105.26 39.7259C104.628 40.4148 104.312 41.2884 104.312 42.3466V53H101.756V41.7926C101.756 40.8622 101.454 40.1129 100.85 39.5447C100.246 38.9695 99.4686 38.6818 98.5169 38.6818C97.8635 38.6818 97.2527 38.8558 96.6845 39.2038C96.1234 39.5518 95.6689 40.0348 95.3208 40.6527C94.9799 41.2635 94.8095 41.9702 94.8095 42.7727V53H92.2953ZM129.79 31.1818V53H127.148V31.1818H129.79ZM134.746 59.1364V36.6364H137.175V39.2358H137.474C137.658 38.9517 137.914 38.5895 138.241 38.1491C138.575 37.7017 139.05 37.304 139.668 36.956C140.293 36.6009 141.138 36.4233 142.204 36.4233C143.582 36.4233 144.796 36.7678 145.847 37.4567C146.898 38.1456 147.719 39.1222 148.308 40.3864C148.898 41.6506 149.192 43.142 149.192 44.8608C149.192 46.5938 148.898 48.0959 148.308 49.3672C147.719 50.6314 146.902 51.6115 145.858 52.3075C144.814 52.9964 143.61 53.3409 142.246 53.3409C141.195 53.3409 140.354 53.1669 139.722 52.8189C139.089 52.4638 138.603 52.0625 138.262 51.6151C137.921 51.1605 137.658 50.7841 137.474 50.4858H137.261V59.1364H134.746ZM137.218 44.8182C137.218 46.054 137.399 47.1442 137.761 48.0888C138.124 49.0263 138.653 49.7614 139.349 50.294C140.045 50.8196 140.897 51.0824 141.906 51.0824C142.957 51.0824 143.834 50.8054 144.537 50.2514C145.247 49.6903 145.78 48.9375 146.135 47.9929C146.497 47.0412 146.678 45.983 146.678 44.8182C146.678 43.6676 146.501 42.6307 146.146 41.7074C145.798 40.777 145.268 40.0419 144.558 39.5021C143.855 38.9553 142.971 38.6818 141.906 38.6818C140.883 38.6818 140.023 38.9411 139.327 39.4595C138.631 39.9709 138.106 40.6882 137.751 41.6115C137.396 42.5277 137.218 43.5966 137.218 44.8182ZM164.619 40.3011L162.36 40.9403C162.218 40.5639 162.009 40.1982 161.732 39.843C161.462 39.4808 161.092 39.1825 160.624 38.9482C160.155 38.7138 159.555 38.5966 158.823 38.5966C157.822 38.5966 156.987 38.8274 156.32 39.2891C155.659 39.7436 155.329 40.3224 155.329 41.0256C155.329 41.6506 155.556 42.1442 156.011 42.5064C156.465 42.8686 157.175 43.1705 158.141 43.4119L160.57 44.0085C162.033 44.3636 163.124 44.907 163.841 45.6385C164.558 46.3629 164.917 47.2969 164.917 48.4403C164.917 49.3778 164.647 50.2159 164.107 50.9545C163.575 51.6932 162.829 52.2756 161.87 52.7017C160.911 53.1278 159.796 53.3409 158.525 53.3409C156.856 53.3409 155.474 52.9787 154.381 52.2543C153.287 51.5298 152.594 50.4716 152.303 49.0795L154.69 48.483C154.917 49.3636 155.347 50.0241 155.979 50.4645C156.618 50.9048 157.452 51.125 158.482 51.125C159.654 51.125 160.585 50.8764 161.273 50.3793C161.969 49.875 162.317 49.2713 162.317 48.5682C162.317 48 162.119 47.5241 161.721 47.1406C161.323 46.75 160.712 46.4588 159.888 46.267L157.161 45.6278C155.663 45.2727 154.562 44.7223 153.859 43.9766C153.163 43.2237 152.815 42.2827 152.815 41.1534C152.815 40.2301 153.074 39.4134 153.592 38.7031C154.118 37.9929 154.832 37.4354 155.734 37.0305C156.643 36.6257 157.673 36.4233 158.823 36.4233C160.442 36.4233 161.714 36.7784 162.637 37.4886C163.567 38.1989 164.228 39.1364 164.619 40.3011ZM179.014 46.3097V36.6364H181.528V53H179.014V50.2301H178.844C178.46 51.0611 177.863 51.7678 177.054 52.3501C176.244 52.9254 175.221 53.2131 173.986 53.2131C172.963 53.2131 172.054 52.9893 171.258 52.5419C170.463 52.0874 169.838 51.4055 169.383 50.4964C168.929 49.5803 168.702 48.4261 168.702 47.0341V36.6364H171.216V46.8636C171.216 48.0568 171.55 49.0085 172.217 49.7188C172.892 50.429 173.751 50.7841 174.795 50.7841C175.42 50.7841 176.056 50.6243 176.702 50.3047C177.356 49.9851 177.903 49.495 178.343 48.8345C178.79 48.174 179.014 47.3324 179.014 46.3097ZM186.133 53V36.6364H188.562V39.1932H188.775C189.116 38.3196 189.667 37.6413 190.426 37.1584C191.186 36.6683 192.099 36.4233 193.164 36.4233C194.244 36.4233 195.142 36.6683 195.86 37.1584C196.584 37.6413 197.149 38.3196 197.554 39.1932H197.724C198.143 38.348 198.772 37.6768 199.61 37.1797C200.448 36.6754 201.453 36.4233 202.625 36.4233C204.088 36.4233 205.284 36.8814 206.215 37.7976C207.145 38.7067 207.61 40.1236 207.61 42.0483V53H205.096V42.0483C205.096 40.8409 204.766 39.978 204.105 39.4595C203.445 38.9411 202.667 38.6818 201.772 38.6818C200.622 38.6818 199.73 39.0298 199.098 39.7259C198.466 40.4148 198.15 41.2884 198.15 42.3466V53H195.593V41.7926C195.593 40.8622 195.292 40.1129 194.688 39.5447C194.084 38.9695 193.306 38.6818 192.355 38.6818C191.701 38.6818 191.091 38.8558 190.522 39.2038C189.961 39.5518 189.507 40.0348 189.159 40.6527C188.818 41.2635 188.647 41.9702 188.647 42.7727V53H186.133Z" fill="black"/>
</svg>
